<?xml version="1.0" encoding="UTF-8" standalone="no"?>
<!DOCTYPE svg PUBLIC "-//W3C//DTD SVG 1.1//EN" "http://www.w3.org/Graphics/SVG/1.1/DTD/svg11.dtd">
<svg version="1.1" xmlns="http://www.w3.org/2000/svg" xmlns:xlink="http://www.w3.org/1999/xlink" preserveAspectRatio="xMidYMid meet" viewBox="0 0 640 640" width="640" height="640"><defs><path d="M329.48 419.71C329.48 427.99 295.59 434.71 253.85 434.71C212.11 434.71 178.22 427.99 178.22 419.71C178.22 411.43 212.11 404.71 253.85 404.71C295.59 404.71 329.48 411.43 329.48 419.71Z" id="c8fM7j2Ae"></path><path d="M587.76 407.36C587.76 415.64 553.87 422.36 512.13 422.36C470.38 422.36 436.49 415.64 436.49 407.36C436.49 399.08 470.38 392.36 512.13 392.36C553.87 392.36 587.76 399.08 587.76 407.36Z" id="b2fgnjU0GS"></path><path d="M375.75 292.7C375.75 361.69 319.74 417.7 250.75 417.7C181.76 417.7 125.75 361.69 125.75 292.7C125.75 223.71 181.76 167.7 250.75 167.7C319.74 167.7 375.75 223.71 375.75 292.7Z" id="ci68Z8nPp"></path><path d="M637.13 282.36C637.13 351.35 581.12 407.36 512.13 407.36C443.14 407.36 387.13 351.35 387.13 282.36C387.13 213.37 443.14 157.36 512.13 157.36C581.12 157.36 637.13 213.37 637.13 282.36Z" id="d16hKcetuc"></path><path d="M502.13 265C502.13 289.84 481.96 310 457.13 310C432.29 310 412.13 289.84 412.13 265C412.13 240.16 432.29 220 457.13 220C481.96 220 502.13 240.16 502.13 265Z" id="k1lCRvj8MX"></path><path d="M561.21 265C561.21 289.84 541.04 310 516.21 310C491.37 310 471.21 289.84 471.21 265C471.21 240.16 491.37 220 516.21 220C541.04 220 561.21 240.16 561.21 265Z" id="afkfPoEY1"></path><path d="M349.02 279.25C349.02 304.09 328.86 324.25 304.02 324.25C279.19 324.25 259.02 304.09 259.02 279.25C259.02 254.42 279.19 234.25 304.02 234.25C328.86 234.25 349.02 254.42 349.02 279.25Z" id="aAnWlzfoz"></path><path d="M283.97 279.25C283.97 304.09 263.8 324.25 238.97 324.25C214.13 324.25 193.97 304.09 193.97 279.25C193.97 254.42 214.13 234.25 238.97 234.25C263.8 234.25 283.97 254.42 283.97 279.25Z" id="dqxnbbWbc"></path><path d="M263.85 275.34C263.85 280.86 259.37 285.34 253.85 285.34C248.33 285.34 243.85 280.86 243.85 275.34C243.85 269.83 248.33 265.34 253.85 265.34C259.37 265.34 263.85 269.83 263.85 275.34Z" id="a19Z33hJxP"></path><path d="M324.02 275.34C324.02 280.86 319.54 285.34 314.02 285.34C308.5 285.34 304.02 280.86 304.02 275.34C304.02 269.83 308.5 265.34 314.02 265.34C319.54 265.34 324.02 269.83 324.02 275.34Z" id="a377CvaUKb"></path><path d="M454.48 265C454.48 270.52 450 275 444.48 275C438.96 275 434.48 270.52 434.48 265C434.48 259.48 438.96 255 444.48 255C450 255 454.48 259.48 454.48 265Z" id="e1VpKsfvQf"></path><path d="M516.21 265C516.21 270.52 511.73 275 506.21 275C500.69 275 496.21 270.52 496.21 265C496.21 259.48 500.69 255 506.21 255C511.73 255 516.21 259.48 516.21 265Z" id="cZ1BIIKeg"></path><path d="M497.13 348.1C497.13 361.9 491.53 373.1 484.63 373.1C477.73 373.1 472.13 361.9 472.13 348.1C472.13 334.31 477.73 323.1 484.63 323.1C491.53 323.1 497.13 334.31 497.13 348.1Z" id="m9SDLi2Vr"></path><path d="M278.85 358.45C278.85 365.35 267.65 370.95 253.85 370.95C240.05 370.95 228.85 365.35 228.85 358.45C228.85 351.55 240.05 345.95 253.85 345.95C267.65 345.95 278.85 351.55 278.85 358.45Z" id="e45y6TIAQ4"></path><path d="M516.21 265C516.21 270.52 511.73 275 506.21 275C500.69 275 496.21 270.52 496.21 265C496.21 259.48 500.69 255 506.21 255C511.73 255 516.21 259.48 516.21 265Z" id="cClclbLhw"></path><path d="M170.8 353.71C168.25 368.17 128.49 373.27 82.07 365.08C35.65 356.89 0.03 338.51 2.58 324.05C5.13 309.6 44.89 304.5 91.31 312.69C137.73 320.87 173.34 339.26 170.8 353.71Z" id="alyi7Thjq"></path><path d="M27.6 338.85L10.85 325.2L31.73 317.6L52.61 310L48.49 331.25L44.36 352.49L27.6 338.85Z" id="eun6n9e9x"></path><path d="M289.02 324.25C289.02 332.53 282.3 339.25 274.02 339.25C265.74 339.25 259.02 332.53 259.02 324.25C259.02 315.97 265.74 309.25 274.02 309.25C282.3 309.25 289.02 315.97 289.02 324.25Z" id="dCNfGrNfM"></path><path d="M339.54 188.13L345.65 218.91L309.83 198.24L274.02 177.56L303.73 167.46L333.44 157.36L339.54 188.13Z" id="bmfeqkIQb"></path><path d="M178.89 172.49L209.9 177.28L178.22 203.86L146.54 230.44L147.21 199.07L147.88 167.7L178.89 172.49Z" id="airSPFey3"></path><path d="M331.98 186.31L335.67 204.92L314.02 192.42L292.37 179.92L310.33 173.81L328.29 167.7L331.98 186.31Z" id="bTNBSsK6A"></path><path d="M175.22 180.43L193.97 183.33L174.81 199.4L155.66 215.47L156.07 196.5L156.47 177.53L175.22 180.43Z" id="b67yhLV7k"></path></defs><g><g><use xlink:href="#c8fM7j2Ae" opacity="1" fill="#d3d3d3" fill-opacity="1"></use></g><g><use xlink:href="#b2fgnjU0GS" opacity="1" fill="#d3d3d3" fill-opacity="1"></use></g><g><use xlink:href="#ci68Z8nPp" opacity="1" fill="#ffa300" fill-opacity="1"></use></g><g><use xlink:href="#d16hKcetuc" opacity="1" fill="#ffdc00" fill-opacity="1"></use></g><g><use xlink:href="#k1lCRvj8MX" opacity="1" fill="#ffffff" fill-opacity="1"></use></g><g><use xlink:href="#afkfPoEY1" opacity="1" fill="#ffffff" fill-opacity="1"></use></g><g><use xlink:href="#aAnWlzfoz" opacity="1" fill="#ffffff" fill-opacity="1"></use></g><g><use xlink:href="#dqxnbbWbc" opacity="1" fill="#ffffff" fill-opacity="1"></use></g><g><use xlink:href="#a19Z33hJxP" opacity="1" fill="#000000" fill-opacity="1"></use></g><g><use xlink:href="#a377CvaUKb" opacity="1" fill="#000000" fill-opacity="1"></use></g><g><use xlink:href="#e1VpKsfvQf" opacity="1" fill="#000000" fill-opacity="1"></use></g><g><use xlink:href="#cZ1BIIKeg" opacity="1" fill="#000000" fill-opacity="1"></use></g><g><use xlink:href="#m9SDLi2Vr" opacity="1" fill="#f20022" fill-opacity="1"></use></g><g><use xlink:href="#e45y6TIAQ4" opacity="1" fill="#f20022" fill-opacity="1"></use></g><g><use xlink:href="#cClclbLhw" opacity="1" fill="#000000" fill-opacity="1"></use></g><g><use xlink:href="#alyi7Thjq" opacity="1" fill="#ffa300" fill-opacity="1"></use></g><g><use xlink:href="#eun6n9e9x" opacity="1" fill="#ffffff" fill-opacity="1"></use></g><g><use xlink:href="#dCNfGrNfM" opacity="1" fill="#000000" fill-opacity="1"></use></g><g><use xlink:href="#bmfeqkIQb" opacity="1" fill="#ffa300" fill-opacity="1"></use></g><g><use xlink:href="#airSPFey3" opacity="1" fill="#ffa300" fill-opacity="1"></use></g><g><use xlink:href="#bTNBSsK6A" opacity="1" fill="#000000" fill-opacity="1"></use></g><g><use xlink:href="#b67yhLV7k" opacity="1" fill="#000000" fill-opacity="1"></use></g></g></svg>